<?xml version="1.0" standalone="no"?>
<!DOCTYPE svg PUBLIC "-//W3C//DTD SVG 20010904//EN"
 "http://www.w3.org/TR/2001/REC-SVG-20010904/DTD/svg10.dtd">
<svg version="1.0" xmlns="http://www.w3.org/2000/svg"
 width="200.000000pt" height="200.000000pt" viewBox="0 0 200.000000 200.000000"
 preserveAspectRatio="xMidYMid meet">
<metadata>
Created by potrace 1.11, written by Peter Selinger 2001-2013
</metadata>
<g transform="translate(0.000000,200.000000) scale(0.100000,-0.100000)"
fill="#000000" stroke="none">
<path d="M2 1768 l3 -233 160 1 c88 1 356 3 595 5 239 1 474 5 523 8 88 6 99
3 72 -19 -10 -8 -11 -17 -5 -31 6 -10 15 -28 20 -39 8 -15 7 -21 -2 -24 -7 -2
-29 -8 -49 -15 -19 -6 -45 -11 -58 -11 -12 0 -20 -4 -16 -9 3 -5 -4 -25 -16
-45 -11 -19 -17 -40 -14 -47 4 -6 1 -15 -6 -20 -12 -7 -12 -12 -1 -29 15 -24
8 -40 -17 -40 -38 0 -44 -24 -37 -148 7 -108 10 -124 48 -207 l40 -90 -1 -129
c-1 -100 2 -127 11 -118 18 18 48 103 48 135 0 15 4 27 9 27 5 0 14 12 20 28
6 15 22 46 35 69 16 26 26 62 29 95 l3 53 3 -55 4 -55 13 60 13 60 -5 -61 c-5
-57 7 -104 27 -104 3 0 13 27 23 60 9 34 23 63 31 66 8 4 15 15 15 25 0 21 40
28 40 7 1 -19 30 23 30 43 0 9 -10 19 -22 22 -16 5 -19 9 -11 19 6 7 13 25 17
41 5 23 3 27 -14 27 -11 0 -20 7 -20 15 0 8 3 14 8 14 30 -5 35 3 14 21 -17
14 -24 31 -25 57 0 21 -9 53 -19 72 -18 31 -18 36 -3 68 9 19 14 41 11 49 -4
10 4 14 32 15 20 1 29 3 20 6 -22 6 -23 31 -2 61 8 12 12 22 8 22 -3 0 -1 7 6
15 9 11 16 12 33 2 12 -7 25 -16 28 -20 3 -5 14 -7 25 -5 12 2 23 -6 31 -23
11 -22 10 -34 -2 -69 -8 -23 -15 -52 -15 -64 0 -11 -9 -32 -20 -46 -12 -15
-20 -41 -20 -65 0 -23 -5 -46 -12 -53 -9 -9 -8 -15 8 -26 18 -14 18 -15 -8
-21 l-28 -7 25 -30 c30 -35 28 -53 -5 -53 -17 0 -26 7 -31 25 l-7 25 -1 -26
c-1 -14 4 -41 10 -59 l12 -32 22 26 23 26 0 -25 c0 -16 -6 -25 -17 -25 -13 0
-12 -4 5 -18 29 -23 39 -82 19 -107 -8 -11 -15 -28 -15 -38 0 -15 3 -16 20 -7
17 9 20 8 20 -14 0 -13 -7 -26 -15 -30 -8 -3 -15 -11 -15 -17 0 -7 3 -10 6 -6
3 3 14 -2 25 -11 20 -17 26 -67 9 -77 -6 -4 -1 -18 11 -35 14 -18 20 -38 17
-54 -4 -19 0 -27 15 -32 19 -6 19 -7 3 -16 -12 -7 -43 -6 -94 1 -41 6 -77 10
-79 8 -2 -2 4 -23 12 -47 8 -23 15 -52 15 -63 0 -11 5 -35 12 -53 9 -26 9 -35
-3 -47 -44 -43 -245 -101 -319 -91 -57 8 -59 4 -67 -118 l-6 -88 392 0 392 0
-4 613 c-2 336 -6 623 -10 637 -3 14 -9 38 -13 55 -7 29 -26 55 -41 56 -4 0
-7 7 -5 15 2 8 -5 14 -18 14 -11 0 -20 5 -20 10 0 34 63 -9 87 -59 l22 -46 1
353 0 352 -778 0 -779 0 3 -142 c2 -79 6 -173 9 -209 5 -51 3 -69 -9 -78 -9
-8 -16 -8 -20 -2 -5 7 -25 330 -26 419 0 9 -47 12 -200 12 l-200 0 2 -232z
m1538 21 c0 -9 -40 -23 -46 -16 -3 2 1 17 8 32 11 25 13 25 25 9 7 -10 13 -21
13 -25z m240 24 c0 -7 -4 -13 -9 -13 -5 0 -11 6 -14 13 -3 8 1 14 9 14 8 0 14
-6 14 -14z m-236 -130 c14 18 46 24 46 7 0 -35 -25 -59 -74 -71 -28 -7 -60
-12 -71 -11 -18 1 -45 27 -45 43 0 13 52 6 57 -7 5 -15 31 -18 57 -8 28 11 17
26 -14 19 -31 -7 -38 4 -24 40 6 14 10 13 31 -7 23 -22 25 -22 37 -5z m436 17
c0 -5 -4 -10 -10 -10 -5 0 -10 5 -10 10 0 6 5 10 10 10 6 0 10 -4 10 -10z
m-521 -131 c6 -18 11 -41 11 -52 0 -17 12 -35 61 -94 11 -14 1 -17 -66 -14
-34 1 -37 -1 -17 -9 29 -12 28 -30 -2 -30 -29 0 -43 -17 -28 -32 6 -6 8 -17 5
-25 -3 -8 0 -25 7 -37 17 -34 10 -71 -15 -69 -11 1 -23 -4 -27 -10 -4 -6 -9 0
-13 16 -4 15 -11 27 -15 27 -10 0 -19 50 -13 68 5 11 7 11 15 0 8 -10 11 -10
15 0 2 6 9 10 14 6 10 -6 12 26 3 50 -3 9 -11 13 -17 9 -7 -4 -8 0 -4 11 5 14
3 17 -8 12 -8 -3 -15 -1 -15 4 0 6 5 10 11 10 6 0 18 7 26 16 14 13 15 23 6
55 -12 45 -2 52 16 12 17 -38 28 -15 25 52 -3 61 8 72 25 24z m468 -17 c9 -6
-1 -18 -32 -40 -28 -20 -45 -39 -45 -52 0 -35 -43 -24 -104 26 -31 26 -56 50
-56 55 0 4 37 10 83 12 45 1 96 4 112 5 17 1 36 -2 42 -6z m-127 -229 c0 -10
3 -36 7 -57 6 -39 6 -39 -14 -19 -27 27 -35 51 -23 74 13 24 30 25 30 2z
m-413 -205 c-2 -13 -4 -3 -4 22 0 25 2 35 4 23 2 -13 2 -33 0 -45z m403 31 c0
-24 -23 -21 -28 4 -2 10 3 17 12 17 10 0 16 -9 16 -21z m-240 -89 c0 -5 -4
-10 -10 -10 -5 0 -10 5 -10 10 0 6 5 10 10 10 6 0 10 -4 10 -10z m-163 -32
c-3 -7 -5 -2 -5 12 0 14 2 19 5 13 2 -7 2 -19 0 -25z m413 -164 c0 -8 9 -40
20 -72 20 -56 19 -105 -2 -118 -18 -11 -37 19 -52 84 -12 54 -12 64 0 76 8 8
14 24 14 36 0 12 5 18 10 15 6 -3 10 -13 10 -21z m170 -383 c0 -18 -134 -131
-155 -131 -4 0 3 15 14 34 30 48 28 94 -3 102 -14 3 -29 3 -34 0 -6 -3 -8 2
-5 14 7 28 105 32 151 7 17 -11 32 -22 32 -26z"/>
<path d="M1540 1273 c0 -23 36 -83 50 -83 5 0 10 5 10 10 0 6 7 10 15 10 17 0
20 26 4 35 -6 4 -13 -2 -16 -14 -7 -27 -23 -27 -23 -1 0 11 -5 20 -10 20 -6 0
-10 7 -8 16 2 10 -3 19 -9 21 -8 3 -13 -3 -13 -14z"/>
<path d="M1580 1264 c0 -17 22 -14 28 4 2 7 -3 12 -12 12 -9 0 -16 -7 -16 -16z"/>
<path d="M1599 1178 c0 -2 -2 -16 -3 -31 -2 -25 0 -27 11 -11 15 21 17 44 3
44 -5 0 -10 -1 -11 -2z"/>
<path d="M1640 884 c0 -8 5 -12 10 -9 6 4 8 11 5 16 -9 14 -15 11 -15 -7z"/>
<path d="M1580 840 c0 -5 7 -10 15 -10 8 0 15 5 15 10 0 6 -7 10 -15 10 -8 0
-15 -4 -15 -10z"/>
</g>
</svg>
